<svg width="237" height="30" viewBox="0 0 237 30" fill="none" xmlns="http://www.w3.org/2000/svg">
<path d="M21.0676 14.2969C22.193 12.9008 22.8719 11.1527 22.8719 9.24886C22.8719 4.72002 19.0727 1.03925 14.3982 1.03925H6.56768H0.392578V22.7143L3.88803 28.5816H6.56768H15.3867C20.0612 28.5816 23.8603 24.9008 23.8603 20.3719C23.8603 17.9662 22.7766 15.8027 21.0676 14.2969ZM17.4054 9.24886C17.4054 10.8585 16.0596 12.1566 14.4042 12.1623H6.86542V6.3354H14.4042C16.0596 6.3354 17.4054 7.63925 17.4054 9.24886ZM15.3867 23.2854H6.86542V17.4585H14.4042H14.4101H15.3867C17.0481 17.4585 18.3939 18.7623 18.3939 20.3719C18.3939 21.9816 17.0481 23.2854 15.3867 23.2854Z" fill="black"/>
<path d="M236.708 6.33461V1.03845H221.213H215.818V22.7135L219.314 28.5808H221.213H236.708V23.2846H222.291V17.4577H235.046V12.1615H222.291V6.33461H236.708Z" fill="black"/>
<path d="M213.442 22.3096H204.17V1.03845H197.697V22.7135L201.193 28.5808H202.92H204.17H217.181L213.442 22.3096Z" fill="black"/>
<path d="M195.029 1.03845H188.557V28.5808H195.029V1.03845Z" fill="black"/>
<path d="M179.417 1.03845V1.04422L169.812 19.3904L160.207 1.04999V1.03845H153.734V28.5808H160.207V13.8692L167.913 28.5808H171.712L179.417 13.8635V28.5808H185.89V1.03845H179.417Z" fill="black"/>
<path d="M138.198 6.33461V1.03845H122.704H117.309V22.7135L120.804 28.5808H122.704H138.198V23.2846H123.781V17.4577H136.537V12.1615H123.781V6.33461H138.198Z" fill="black"/>
<path d="M114.932 22.3096H105.654V1.03845H99.1875V22.7135L102.683 28.5808H104.41H105.654H118.672L114.932 22.3096Z" fill="black"/>
<path d="M52.6044 28.5692L43.0886 1.03268H39.3967H36.6158H32.9238L23.4141 28.5692H29.8809L38.0092 5.05384L42.1478 17.0423H33.8766V17.0481L37.0326 22.3385H43.9819L46.1315 28.5692H52.6044Z" fill="black"/>
<path d="M44.9883 1.02118V1.03272H44.9942L47.0427 6.96349H51.6755V6.98079H55.2841V28.5808H60.3397H66.8125H82.5689H89.0417V6.98079H97.9739V1.03849V1.02118H44.9883Z" fill="#CF251A"/>
<path d="M63.8356 26.7173V26.7231C63.8058 26.8269 63.8773 26.6538 63.8356 26.7173Z" fill="black"/>
<path d="M77.3405 12.0981C77.406 11.9827 77.4239 11.8327 77.6263 11.8673C77.7633 11.8904 78.067 11.8269 78.2516 11.7577C79.3115 11.3423 80.5204 10.0558 80.568 10.0212C80.8002 9.84809 80.9253 9.77886 81.1992 9.66347C81.4314 9.5654 81.616 9.40963 81.7828 9.23078C81.9078 9.09232 81.9555 8.93078 81.9733 8.7577C81.9972 8.48078 82.015 7.6327 81.622 7.56924C81.5327 7.5577 81.4434 7.60386 81.3659 7.65578C81.1813 7.77693 81.0027 7.90963 80.83 8.05386C80.8002 8.07693 80.7526 8.10001 80.7347 8.06539C80.7288 8.04809 80.7347 8.03078 80.7407 8.01347C80.7943 7.88078 81.0801 7.51732 80.9193 7.37886C80.8836 7.35001 80.8241 7.35001 80.7824 7.36732C80.7407 7.38463 80.705 7.41924 80.6692 7.45386C80.4072 7.72501 80.0797 8.05386 80.0797 8.45193C80.0857 8.59617 80.0857 8.69424 80.1095 8.8327C80.1452 9.00001 80.0738 9.12116 79.9189 9.24809C79.2282 9.62886 79.2282 9.62886 78.8233 9.87693C78.7042 9.95193 78.5196 10.0789 78.4421 10.0442C78.2814 9.97501 78.4124 9.77309 78.4481 9.6404C78.728 8.57309 78.5493 7.56347 78.0789 6.58847C77.9181 6.25386 77.8645 5.84424 78.0313 5.50386C78.1146 5.33655 78.2516 5.19809 78.4183 5.10578C78.6446 4.97886 78.8947 5.0077 79.121 4.89809C79.6033 4.66732 79.6629 4.17116 79.7105 3.70386C79.7701 3.15578 79.7343 2.59039 79.5616 2.05963C79.389 1.54039 79.0555 1.07309 78.5791 0.773087C77.799 0.282702 76.5843 0.219241 75.9769 0.998087C75.8161 1.20578 75.7089 1.44232 75.6375 1.69039C75.5065 2.15193 75.5898 2.77501 75.8399 3.21924C76.227 3.91732 76.2389 4.39616 75.7268 4.71347C75.3754 4.92693 74.8752 5.10001 74.3274 5.57309C74.0118 5.7404 73.3508 5.94809 72.7196 6.23655C72.6005 5.8154 72.5231 5.47501 72.5648 5.29039C72.6541 5.34809 72.8923 5.3827 72.9578 5.37693C73.2139 5.35963 73.3865 5.18078 73.4997 4.96732C74.0594 3.91155 73.8927 2.50963 73.2198 1.54616C73.0233 1.26924 72.7673 1.02116 72.4457 0.89424C71.5346 0.536548 70.2901 1.08463 70.1531 2.0654C70.1531 2.0827 70.1472 2.10001 70.1472 2.11732C70.1114 2.46924 69.8673 2.65386 69.5755 2.49232C68.7895 2.05963 68.057 2.78655 67.3722 2.20963C67.3425 2.33078 67.3603 2.42886 67.408 2.55001C65.6334 2.87886 65.4548 4.28655 65.4548 4.28655C65.4548 4.28655 65.9907 3.66924 66.5326 3.62886C65.3833 4.57501 65.4965 5.6827 65.6275 6.32886C65.7228 6.24809 66.0265 5.50386 68.1285 5.41732C68.0987 5.41732 67.9082 5.61924 67.8843 5.64232C67.9498 5.63655 68.1285 5.60193 68.1821 5.59039C68.2833 5.56732 68.3845 5.54424 68.4858 5.5154C69.2003 5.29616 69.772 4.69616 69.9923 4.00963C70.0816 3.74424 70.1233 3.46732 70.1174 3.19039L70.2365 3.10386C70.2365 3.10386 70.2365 3.3577 70.4032 3.75578C70.4985 3.98655 70.8915 4.48847 70.8915 4.48847C70.8855 4.73655 70.8141 4.96732 70.6533 5.16347C70.4449 5.41732 70.1293 5.55578 69.8316 5.69424C69.8316 5.69424 69.4921 5.83847 69.0634 6.01155C68.6882 6.16732 68.1166 6.44424 67.801 6.6577C67.4377 6.90578 67.0566 7.22886 66.8601 7.56347C66.741 7.75963 66.616 7.95001 66.8363 8.14616C67.4139 8.65386 68.1642 9.38078 68.9086 9.65193C68.9026 9.70386 68.9026 11.6019 68.4262 12.1731C68.325 12.2942 68.0153 12.4096 67.8546 12.4846C67.6342 12.5885 67.4675 12.7212 67.3127 12.8827C67.0864 13.125 66.9554 13.4365 66.878 13.7539C66.8006 14.0654 66.8661 14.4173 66.7589 14.7173C66.7113 14.8442 66.6517 14.9712 66.5922 15.0981C66.485 15.3115 66.3659 15.525 66.2527 15.7385C65.9788 16.2635 65.7644 16.8173 65.6037 17.3827C65.3833 18.1558 64.9189 18.2885 64.2281 17.9481C64.0971 17.8673 63.4302 17.4866 63.4123 17.4808C62.2392 16.8692 60.2444 16.9039 60.1491 16.6904C59.9466 16.0673 59.5298 15.8942 58.9343 16.2C58.5889 16.3789 58.4579 16.6327 57.9518 16.9269C57.6898 17.0827 57.0526 17.0423 56.4512 17.8269C56.1296 18.2423 56.338 18.4096 56.4452 18.5019C56.5941 18.6289 56.9037 18.5827 57.2372 18.4212C57.5826 18.2539 58.1662 18.15 58.5532 18.1327C58.7438 18.1269 58.8807 18.15 58.9462 18.1096C59.244 17.9308 60.0538 18.0404 60.8577 18.5365C62.1023 19.3096 63.5076 19.8346 64.8653 20.3885C65.5501 20.6654 65.949 20.55 66.4076 20.025C67.3365 18.9635 68.5096 18.3981 69.1884 17.1462C69.4088 16.7366 69.4088 16.8116 69.641 17.2269C69.7065 17.3423 69.7541 17.4289 69.8077 17.5269C69.242 18.4789 68.6108 19.9096 67.8784 20.2846C67.8784 20.2846 66.3956 20.6942 65.7228 21.7154C65.5679 21.9462 65.3536 22.3846 65.1749 22.6789C64.8712 23.1866 64.5318 23.6885 64.0673 24.0692C63.853 24.2423 63.4242 24.5885 63.1741 24.7096C62.9478 24.825 62.4476 24.9808 62.1975 25.0212C61.7509 25.0962 61.3877 25.4308 61.4651 25.8635C61.5901 26.5385 61.8224 26.9481 61.876 27.6346C61.9415 28.4539 62.3166 29.0423 62.9895 29.4981C63.1324 29.5962 63.3885 29.6539 63.5612 29.5558C63.6624 29.4981 63.6505 29.4173 63.6088 29.325C63.1622 28.425 63.3885 27.5654 63.8411 26.7346C63.853 26.6942 63.8827 26.5731 63.8827 26.5385C63.9482 26.2789 64.24 25.6616 65.4072 24.8077C66.2885 24.1731 67.2115 23.5962 68.0094 22.8635C68.0809 22.8 68.5572 22.3846 69.2659 21.9519C69.8316 21.6058 70.4449 21.1789 71.0046 20.7577C70.9927 21.6404 71.1654 22.2462 71.481 23.1231C71.749 23.8616 72.1896 24.7789 72.279 25.5635C72.3206 25.9269 72.3981 26.2904 72.3861 26.6596C72.3802 26.8442 72.3504 27.0289 72.2849 27.2077C72.2135 27.3923 72.0944 27.5308 71.9991 27.6981C71.8859 27.9058 71.9098 28.0904 72.0229 28.2981C72.0408 28.3269 72.136 28.425 72.1599 28.4481C72.279 28.5808 72.8506 28.6212 73.2317 28.6385C73.72 28.6616 74.1666 28.6673 74.6251 28.8289C74.9586 28.9442 75.3397 28.9558 75.6851 28.875C75.8637 28.8346 76.0364 28.7712 76.1853 28.6789C76.3044 28.6039 76.489 28.4942 76.5366 28.2808C76.5604 28.1827 76.5009 28.0789 76.4294 28.0096C76.2984 27.8827 76.0662 27.8596 75.8935 27.8135C75.691 27.7616 75.4945 27.6808 75.2921 27.5942C75.2444 27.3346 75.1551 27.075 75.1253 26.9539C75.0003 26.475 75.429 25.5808 75.3993 25.1366C76.0364 23.8327 76.7391 23.2558 78.0432 22.4942C78.597 22.1712 79.115 21.8135 79.6152 21.4154C80.3894 20.7981 81.36 20.2269 81.8245 19.3385C82.1222 18.7731 81.8066 18.1789 81.4255 17.6769C81.2588 17.4519 81.0742 17.2442 80.9253 17.0654C80.2643 16.2692 79.4485 15.6116 78.5077 15.1442C77.9955 14.8904 77.4358 14.6885 77.013 14.3019C76.5545 13.8808 76.7927 13.3442 76.9892 12.8481C77.0964 12.5885 77.2095 12.3404 77.3405 12.0981ZM72.6601 10.9269C72.8447 10.8692 72.9697 11.0019 73.1365 11.0885C73.327 11.4519 73.3389 11.9885 72.5767 12.4269C72.3683 12.5481 72.1956 12.6692 72.0467 12.7962C72.2194 11.9596 72.5291 11.2269 72.6601 10.9269ZM78.5553 18.9C77.5966 19.2289 76.882 20.4692 76.4473 21.1731C75.7685 22.2635 75.4171 22.8173 74.2143 23.4C74.1369 23.4404 74.0833 23.4116 74.0178 23.3885C73.8808 23.3366 73.7081 23.3539 73.5354 23.4C73.5354 23.2789 73.5354 23.1692 73.5354 23.0423C73.5592 22.2692 73.5711 21.8423 73.5473 20.925C73.5414 20.7231 73.5652 19.9212 73.5235 19.6154C73.458 19.0731 73.4699 18.9116 73.3866 18.5539C73.6367 18.2423 73.8868 17.9308 74.1309 17.6135C74.3215 17.3769 74.5299 17.3077 74.8276 17.4289C76.0543 17.9192 77.2571 18.4327 78.5553 18.9Z" fill="white"/>
<path d="M71.3682 15.3866C71.523 14.8789 71.4753 14.3596 71.6004 13.9962C71.7135 13.6039 71.9696 13.2808 72.315 13.0212C72.4936 12.8712 72.6425 12.7962 72.8985 12.6289C73.1248 12.4673 73.369 12.2481 73.4761 11.9192C73.6905 11.2154 73.1963 10.6731 72.8807 10.3558C72.2435 9.68079 71.6123 8.93078 71.4515 8.11732C71.261 7.28655 72.1959 6.69232 73.0295 6.30001C73.4523 6.06925 73.9228 5.93079 74.3455 5.64809C74.7386 5.33655 75.0958 5.04232 75.5305 4.81155C75.072 4.96732 74.6373 5.24425 74.2443 5.49809C73.8394 5.71732 73.3451 5.8154 72.8866 6.00002C72.4281 6.18463 71.9696 6.39232 71.5587 6.72694C71.1419 7.03271 70.8322 7.62694 70.9156 8.17501C71.0228 10.2923 74.4765 11.5385 71.8743 12.4962C71.4575 12.8192 71.0942 13.2923 70.9573 13.8231C70.8799 14.0769 70.856 14.3596 70.8501 14.5904C70.8382 14.8154 70.8084 15.0289 70.7548 15.2366C70.6536 15.6577 70.4511 16.0442 70.1772 16.3962C69.8973 16.7308 69.54 17.1519 69.3078 17.5731C69.0577 18 68.8553 18.45 68.6707 18.8827C68.4741 19.3096 68.2895 19.7481 67.9501 19.9846C67.6047 20.2039 67.0629 20.3481 66.6639 20.6366C66.2471 20.9135 65.9195 21.3 65.6992 21.7212C65.985 21.3346 66.3423 21.0058 66.7592 20.7866C67.182 20.5442 67.6286 20.4981 68.1347 20.2558C68.623 19.9558 68.8374 19.4712 69.0696 19.0558C69.2899 18.6289 69.5103 18.2192 69.7663 17.8385C70.0283 17.4404 70.3142 17.1462 70.6536 16.7481C70.9811 16.3558 71.2372 15.8885 71.3682 15.3866Z" fill="black"/>
<path d="M73.3326 18.6173C73.0348 18.9462 72.7192 19.2519 72.3977 19.5577C71.7665 20.1635 71.0281 20.6885 70.373 21.3115C71.1591 20.8615 71.9213 20.3769 72.6001 19.7596C73.2492 19.1365 73.8685 18.4385 74.1901 17.5962C73.9281 17.9596 73.6303 18.2885 73.3326 18.6173Z" fill="black"/>
<path d="M75.5245 25.1423C75.6912 24.825 75.858 24.5077 76.0068 24.1731L75.983 24.1558C75.7627 24.45 75.5483 24.7615 75.3399 25.0788L75.3339 25.0904V25.125C75.3042 25.5462 75.1077 25.9962 75.0243 26.4692C74.9767 26.6942 75.0064 27.0058 75.1017 27.2077C75.1791 27.4269 75.2506 27.6462 75.2804 27.8654C75.322 28.0904 75.2685 28.3154 75.0064 28.3038C74.7802 28.3269 74.5658 28.1942 74.4169 28.0269C74.1073 27.6808 73.9644 27.225 73.8334 26.7865C73.6905 26.3365 73.6845 25.9096 73.6071 25.4135C73.5535 25.1654 73.4523 24.9231 73.2915 24.7212C73.1367 24.525 72.9818 24.3635 72.958 24.1962C72.9223 23.8385 73.2915 23.4404 73.7202 23.4058C73.8334 23.3942 73.9167 23.4 74.0358 23.4346C74.1013 23.4635 74.2323 23.4404 74.274 23.4L74.4288 23.3019L75.0243 22.8923L75.0064 22.8692L74.3633 23.1808C74.2502 23.2269 74.149 23.3135 74.1013 23.2673C74.0001 23.2154 73.8393 23.1808 73.7143 23.1865C73.1902 23.2038 72.6246 23.6192 72.6662 24.225C72.7079 24.5308 72.9223 24.7212 73.0473 24.9C73.1724 25.0731 73.2736 25.2635 73.3272 25.4712C73.4046 25.8923 73.4523 26.4115 73.6428 26.8442C73.8095 27.2885 74.018 27.7327 74.3514 28.0904C74.5241 28.2635 74.7563 28.4077 75.0183 28.4019C75.1374 28.4019 75.3101 28.3673 75.3756 28.2288C75.4471 28.1077 75.4471 27.975 75.4531 27.8538C75.4471 27.6058 75.3995 27.375 75.3459 27.1442C75.2744 26.9077 75.2625 26.7404 75.3101 26.5038C75.3399 26.0712 75.5364 25.6442 75.5245 25.1423Z" fill="black"/>
<path d="M78.6633 8.64233C78.5442 9.40964 78.318 10.0962 77.9904 10.7885C77.8475 11.1404 77.6808 11.4693 77.4962 11.8039C77.3116 12.1385 77.1389 12.4846 77.002 12.8423C77.4843 12.2423 77.9607 11.625 78.2644 10.8981C78.4013 10.5404 78.5502 10.1827 78.6276 9.79618C78.711 9.40964 78.6991 9.01733 78.6633 8.64233Z" fill="black"/>
</svg>
